<svg xmlns="http://www.w3.org/2000/svg" viewBox="0 0 1200 900" width="1200" height="900" role="img" aria-label="ApplyPilot AI Agent">
  <defs>
    <linearGradient id="bg5" x1="0" y1="0" x2="1" y2="1">
      <stop offset="0" stop-color="#1A1714"/><stop offset="1" stop-color="#0C0B0A"/>
    </linearGradient>
  </defs>
  <rect width="1200" height="900" fill="url(#bg5)"/>
  <g fill="#2A2620"><circle cx="160" cy="180" r="3"/><circle cx="1040" cy="220" r="3"/><circle cx="980" cy="650" r="3"/><circle cx="250" cy="700" r="3"/></g>
  <!-- agent flow: nodes + arrows -->
  <g stroke="#6E83FF" stroke-width="3" fill="none" marker-end="url(#a)">
    <defs><marker id="a" markerWidth="10" markerHeight="10" refX="7" refY="3" orient="auto"><path d="M0,0 L7,3 L0,6 Z" fill="#6E83FF"/></marker></defs>
    <line x1="285" y1="300" x2="455" y2="300"/><line x1="565" y1="300" x2="735" y2="300"/><line x1="600" y1="360" x2="600" y2="455"/>
  </g>
  <g fill="none" stroke="#6E83FF" stroke-width="4">
    <rect x="185" y="255" width="100" height="90" rx="10"/><rect x="455" y="255" width="110" height="90" rx="10"/><rect x="735" y="255" width="110" height="90" rx="10"/>
    <rect x="520" y="455" width="160" height="90" rx="10"/>
  </g>
  <!-- cursor -->
  <path d="M600 500 L600 540 L612 528 L624 552 L634 547 L622 524 L640 524 Z" fill="#E87A52"/>
  <g font-family="ui-monospace,Menlo,Consolas,monospace" font-size="18" fill="#8E887D" text-anchor="middle">
    <text x="235" y="305">JD</text><text x="510" y="305">SCORE</text><text x="790" y="305">TAILOR</text><text x="600" y="508">APPLY</text>
  </g>
  <text x="80" y="800" font-family="Georgia,'Times New Roman',serif" font-size="60" font-style="italic" fill="#F0ECE3">ApplyPilot AI Agent</text>
  <text x="82" y="845" font-family="ui-monospace,Menlo,Consolas,monospace" font-size="22" letter-spacing="3" fill="#8E887D">GEMMA 2B · LOCAL LLM · AUTOMATION</text>
</svg>
