<svg xmlns="http://www.w3.org/2000/svg" viewBox="0 0 1200 900" width="1200" height="900" role="img" aria-label="CCTV Fire Detection">
  <defs>
    <linearGradient id="bg3" x1="0" y1="0" x2="1" y2="1">
      <stop offset="0" stop-color="#1A1714"/><stop offset="1" stop-color="#0C0B0A"/>
    </linearGradient>
    <radialGradient id="heat" cx="0.5" cy="0.6" r="0.6">
      <stop offset="0" stop-color="#E87A52" stop-opacity="0.9"/><stop offset="0.6" stop-color="#D8623A" stop-opacity="0.35"/><stop offset="1" stop-color="#D8623A" stop-opacity="0"/>
    </radialGradient>
  </defs>
  <rect width="1200" height="900" fill="url(#bg3)"/>
  <g fill="#2A2620"><circle cx="160" cy="180" r="3"/><circle cx="1040" cy="220" r="3"/><circle cx="980" cy="650" r="3"/><circle cx="250" cy="700" r="3"/></g>
  <ellipse cx="600" cy="330" rx="320" ry="240" fill="url(#heat)"/>
  <!-- flame -->
  <path d="M600 150 C660 250 720 290 700 380 C690 430 640 470 600 470 C560 470 510 430 500 380 C485 300 560 270 600 150 Z" fill="#E87A52"/>
  <path d="M600 250 C630 310 650 340 638 390 C632 420 615 445 600 445 C585 445 568 420 562 390 C555 350 585 330 600 250 Z" fill="#1A1714"/>
  <!-- detection box -->
  <rect x="470" y="170" width="260" height="320" fill="none" stroke="#6E83FF" stroke-width="3" stroke-dasharray="14 10"/>
  <text x="80" y="800" font-family="Georgia,'Times New Roman',serif" font-size="64" font-style="italic" fill="#F0ECE3">CCTV Fire Intelligence</text>
  <text x="82" y="845" font-family="ui-monospace,Menlo,Consolas,monospace" font-size="22" letter-spacing="3" fill="#8E887D">REAL-TIME · OPENCV · CNN · ZERO NEW HW</text>
</svg>
